<?xml version="1.0" encoding="UTF-8" standalone="no"?>
<svg
   sodipodi:docname="flask_erlenmeyer.svg"
   inkscape:version="1.1.2 (0a00cf5339, 2022-02-04)"
   id="svg8"
   version="1.1"
   viewBox="0 0 12.437997 22.925919"
   height="22.925919mm"
   width="12.437997mm"
   inkscape:export-filename="/home/leo/Documents/phd/fig/presentation/flask.png"
   inkscape:export-xdpi="600.38611"
   inkscape:export-ydpi="600.38611"
   xmlns:inkscape="http://www.inkscape.org/namespaces/inkscape"
   xmlns:sodipodi="http://sodipodi.sourceforge.net/DTD/sodipodi-0.dtd"
   xmlns="http://www.w3.org/2000/svg"
   xmlns:svg="http://www.w3.org/2000/svg"
   xmlns:rdf="http://www.w3.org/1999/02/22-rdf-syntax-ns#"
   xmlns:cc="http://creativecommons.org/ns#"
   xmlns:dc="http://purl.org/dc/elements/1.1/">
  <defs
     id="defs2" />
  <sodipodi:namedview
     inkscape:document-rotation="0"
     inkscape:snap-global="true"
     inkscape:showpageshadow="false"
     inkscape:window-maximized="1"
     inkscape:window-y="22"
     inkscape:window-x="58"
     inkscape:window-height="1021"
     inkscape:window-width="1862"
     showborder="true"
     units="mm"
     inkscape:pagecheckerboard="true"
     showgrid="false"
     inkscape:current-layer="layer1"
     inkscape:document-units="px"
     inkscape:cy="64.877047"
     inkscape:cx="-37.299883"
     inkscape:zoom="2.8284271"
     inkscape:pageshadow="2"
     inkscape:pageopacity="0"
     borderopacity="0.2"
     bordercolor="#666666"
     pagecolor="#ffffff"
     id="base"
     showguides="true"
     inkscape:guide-bbox="true"
     inkscape:snap-bbox="true"
     inkscape:bbox-paths="true"
     inkscape:snap-bbox-edge-midpoints="true"
     inkscape:snap-intersection-paths="true"
     inkscape:object-paths="true" />
  <metadata
     id="metadata5">
    <rdf:RDF>
      <cc:Work
         rdf:about="">
        <dc:format>image/svg+xml</dc:format>
        <dc:type
           rdf:resource="http://purl.org/dc/dcmitype/StillImage" />
      </cc:Work>
    </rdf:RDF>
  </metadata>
  <g
     id="layer1"
     inkscape:groupmode="layer"
     inkscape:label="Layer 1"
     transform="translate(-163.12252,-157.22052)"
     style="display:inline">
    <circle
       style="fill:#000600;fill-opacity:1;stroke:#000000;stroke-width:0.39687502;stroke-miterlimit:4;stroke-dasharray:none;stroke-opacity:1"
       id="path30729"
       cx="169.30547"
       cy="169.99644"
       r="1.1423867"
       inkscape:export-filename="/home/leo/Documents/phd/fig/presentation/flask.png"
       inkscape:export-xdpi="600.38611"
       inkscape:export-ydpi="600.38611" />
    <circle
       style="fill:#000600;fill-opacity:1;stroke:#000000;stroke-width:0.39687502;stroke-miterlimit:4;stroke-dasharray:none;stroke-opacity:1"
       id="path30729-5"
       cx="171.52446"
       cy="171.83069"
       r="0.85197991"
       inkscape:export-filename="/home/leo/Documents/phd/fig/presentation/flask.png"
       inkscape:export-xdpi="600.38611"
       inkscape:export-ydpi="600.38611" />
    <circle
       style="fill:#000600;fill-opacity:1;stroke:#000000;stroke-width:0.39687502;stroke-miterlimit:4;stroke-dasharray:none;stroke-opacity:1"
       id="circle30838"
       cx="169.59496"
       cy="166.70032"
       r="1.3677838"
       inkscape:export-filename="/home/leo/Documents/phd/fig/presentation/flask.png"
       inkscape:export-xdpi="600.38611"
       inkscape:export-ydpi="600.38611" />
    <g
       id="g35068"
       style="stroke-width:0.52916669;stroke-miterlimit:4;stroke-dasharray:none;stroke:#000000;stroke-opacity:1"
       inkscape:export-filename="/home/leo/Documents/phd/fig/presentation/flask.png"
       inkscape:export-xdpi="600.38611"
       inkscape:export-ydpi="600.38611">
      <g
         id="g40099"
         style="stroke:#000000;stroke-opacity:1">
        <g
           id="g24669"
           style="stroke:#000000;stroke-width:0.52916669;stroke-miterlimit:4;stroke-dasharray:none;stroke-opacity:1">
          <path
             style="fill:none;stroke:#000000;stroke-width:0.52916669;stroke-linecap:butt;stroke-linejoin:miter;stroke-miterlimit:4;stroke-dasharray:none;stroke-opacity:1"
             d="m 168.01734,179.87239 c 5.24425,0 7.27859,0.29867 7.27859,-2.96604 0,-3.26472 -3.67675,-12.39694 -3.67675,-12.39694 l -0.029,-6.39066"
             id="path23588"
             sodipodi:nodetypes="cscc" />
          <path
             style="fill:none;stroke:#000000;stroke-width:0.52916669;stroke-linecap:butt;stroke-linejoin:miter;stroke-miterlimit:4;stroke-dasharray:none;stroke-opacity:1"
             d="m 170.66569,179.87239 c -5.24425,0 -7.27859,0.29867 -7.27859,-2.96604 0,-3.26472 3.67675,-12.39694 3.67675,-12.39694 l 0.029,-6.39066 c 0,0 -0.35671,-0.62549 -1.08337,-0.62549 h 6.612 c 0,0 -1.0313,-0.12268 -1.0313,0.62549"
             id="path23847"
             sodipodi:nodetypes="csccccc" />
        </g>
        <path
           style="fill:none;fill-opacity:1;stroke:#000000;stroke-width:0.529167;stroke-linecap:butt;stroke-linejoin:miter;stroke-miterlimit:4;stroke-dasharray:none;stroke-opacity:1"
           d="m 163.85796,173.99759 c 2.80404,0 3.03264,1.87389 4.75281,1.8707 1.72017,-0.003 3.83978,-2.46817 5.25265,-2.46817 1.41286,0 0.43677,-0.001 0.43677,-0.001"
           id="path31957"
           sodipodi:nodetypes="ccsc" />
      </g>
    </g>
    <path
       style="fill:#000000;fill-opacity:1;stroke:none;stroke-width:0.0117556;stroke-miterlimit:4;stroke-dasharray:0.0235113, 0.0117556;stroke-dashoffset:0;stroke-opacity:1"
       d="m 42.828125,61.662266 c -1.682377,0.06405 -3.46984,-0.0827 -5.007076,0.745536 -2.967624,1.375055 -5.564272,3.403768 -8.339611,5.111196 -2.491254,1.569108 -5.094174,3.16673 -8.096119,3.455809 -2.330565,0.245147 -4.630595,-0.675238 -6.443372,-2.097842 -2.152013,-1.599071 -4.2803,-3.365374 -6.896511,-4.144667 -1.4821998,-0.466156 -3.0635642,-0.797 -4.6129406,-0.656114 -0.5372743,0.27629 -0.4226953,1.051892 -0.6199506,1.565629 -0.8780913,4.16567 -1.8010102,8.520358 -0.8683464,12.759687 0.4364724,2.040883 1.6349438,3.998963 3.560399,4.93068 2.7101626,1.346567 5.8119696,1.483226 8.7787526,1.654597 5.778152,0.161945 11.560799,0.07968 17.340137,0.02004 2.998422,-0.07438 6.069708,-0.228765 8.917071,-1.253338 1.889682,-0.665103 3.498986,-2.141444 4.147692,-4.058441 1.201454,-3.468898 0.797736,-7.230953 0.165624,-10.77197 -0.429514,-2.336615 -0.942996,-4.671136 -1.574659,-6.954422 -0.07785,-0.213612 -0.250346,-0.256186 -0.45109,-0.306384 z"
       id="path42693"
       transform="matrix(0.26458334,0,0,0.26458334,163.12252,157.22052)"
       inkscape:export-filename="/home/leo/Documents/phd/fig/presentation/flask.png"
       inkscape:export-xdpi="600.38611"
       inkscape:export-ydpi="600.38611" />
  </g>
</svg>
